<?xml version="1.0" standalone="no"?>
<!DOCTYPE svg PUBLIC "-//W3C//DTD SVG 20010904//EN"
 "http://www.w3.org/TR/2001/REC-SVG-20010904/DTD/svg10.dtd">
<svg version="1.0" xmlns="http://www.w3.org/2000/svg"
 width="1280.000000pt" height="1280.000000pt" viewBox="0 0 1280.000000 1280.000000"
 preserveAspectRatio="xMidYMid meet">
<metadata>
Created by potrace 1.14, written by Peter Selinger 2001-2017
</metadata>
<g transform="translate(0.000000,1280.000000) scale(0.100000,-0.100000)"
fill="#000000" stroke="none">
<path d="M3590 11299 c-19 -10 -31 -19 -26 -19 5 0 2 -8 -7 -18 -30 -33 -50
-96 -49 -159 0 -35 -3 -63 -7 -63 -4 0 -18 12 -32 26 -27 30 -113 74 -146 74
-58 0 -81 -103 -42 -189 29 -65 144 -197 207 -238 27 -19 29 -33 2 -26 -11 3
-20 10 -20 15 0 5 -4 7 -8 4 -5 -3 -38 6 -75 20 -102 36 -164 41 -221 16 -62
-28 -83 -72 -57 -117 10 -17 31 -35 49 -41 l33 -10 -24 -13 c-34 -18 -57 -63
-57 -111 0 -35 6 -48 38 -79 34 -34 42 -37 102 -40 69 -3 110 -21 49 -21 -38
0 -69 -24 -69 -52 0 -9 -7 -18 -15 -22 -9 -3 -15 -19 -15 -41 0 -20 -4 -44
-10 -54 -34 -65 -53 -505 -25 -597 8 -27 15 -50 15 -51 0 -2 -32 9 -71 23 -78
28 -102 26 -97 -8 2 -19 20 -30 90 -57 93 -36 98 -42 98 -117 0 -23 6 -47 13
-53 8 -6 22 -39 31 -73 20 -71 28 -92 62 -163 12 -27 26 -57 29 -65 3 -8 16
-33 30 -55 13 -22 32 -56 42 -75 21 -40 44 -78 84 -137 16 -23 29 -46 29 -52
0 -7 8 -15 17 -18 22 -9 65 -59 115 -133 23 -33 47 -60 54 -60 8 0 22 -13 32
-28 34 -56 304 -292 349 -306 11 -4 28 -17 36 -30 9 -13 30 -29 49 -36 18 -8
50 -29 71 -47 20 -18 44 -33 52 -33 7 0 18 -6 22 -13 4 -8 43 -33 85 -56 43
-23 80 -46 83 -52 4 -5 19 -9 35 -9 16 0 31 -4 34 -9 6 -9 81 -34 141 -46 17
-4 40 -13 53 -21 23 -15 23 -17 15 -127 -8 -123 -7 -518 2 -694 5 -91 4 -113
-7 -113 -7 0 -51 29 -96 65 -45 36 -90 65 -101 65 -16 0 -31 -18 -31 -36 0 -3
173 -142 248 -200 5 -3 10 -58 22 -233 6 -91 15 -172 20 -180 4 -9 11 -41 14
-71 10 -83 44 -322 63 -435 27 -169 27 -164 8 -185 -25 -28 -40 -25 -79 12
-19 18 -45 33 -57 33 -24 0 -24 0 -44 118 -5 34 -9 38 -33 35 -25 -3 -27 -6
-25 -50 1 -36 -2 -45 -13 -41 -8 3 -14 9 -14 14 0 4 -17 11 -37 15 -21 4 -47
13 -58 20 -11 8 -33 14 -51 14 -31 0 -31 0 -40 73 -8 68 -10 72 -34 72 -24 0
-25 -3 -28 -60 l-3 -60 -58 -2 c-43 -1 -75 -9 -122 -32 -68 -32 -70 -35 -126
-139 -35 -65 -35 -67 -31 -156 5 -87 11 -108 58 -198 10 -17 -5 -28 -39 -28
-27 0 -42 -20 -30 -42 8 -15 22 -18 89 -18 58 0 80 -4 80 -13 0 -17 112 -107
135 -107 5 0 28 -10 50 -21 84 -46 304 -114 425 -133 24 -4 69 -15 100 -25 30
-10 71 -16 90 -14 48 6 73 -15 76 -63 2 -22 10 -57 18 -79 8 -22 17 -62 21
-89 4 -27 13 -59 21 -71 11 -17 44 -121 44 -139 0 -2 -11 -7 -25 -10 -26 -7
-35 -39 -15 -51 29 -18 -19 -24 -207 -25 -206 -1 -275 -9 -323 -39 -39 -24
-75 -64 -106 -117 -27 -46 -29 -56 -29 -156 0 -72 4 -111 13 -120 6 -6 12 -20
12 -31 0 -10 13 -31 28 -47 31 -31 31 -25 17 -220 -6 -80 11 -549 24 -663 4
-37 4 -70 0 -73 -14 -8 13 -261 41 -392 10 -43 16 -52 33 -53 17 -1 18 -2 4
-6 -11 -3 -16 -12 -13 -26 7 -38 47 -160 62 -194 8 -17 14 -36 14 -42 0 -6 5
-11 11 -11 5 0 8 -4 5 -9 -7 -10 58 -141 75 -151 6 -4 10 -11 8 -16 -1 -5 8
-14 21 -20 15 -8 18 -13 8 -16 -9 -3 3 -23 36 -63 139 -162 286 -227 674 -295
289 -51 402 -60 702 -60 695 0 1020 60 1265 235 94 68 200 192 221 258 3 12
12 29 19 37 18 21 80 208 105 315 60 262 83 506 78 838 -2 137 1 237 6 237 5
0 6 76 3 184 l-7 183 26 26 c51 52 68 95 68 182 1 66 -3 89 -24 130 -46 92
-162 187 -257 210 -10 3 -43 12 -72 20 -74 20 -239 28 -387 18 -128 -9 -158
-7 -149 8 4 5 39 9 80 9 102 0 125 10 125 55 0 20 7 52 15 72 8 19 15 44 15
54 0 11 5 19 10 19 18 0 191 120 197 136 3 9 -1 22 -9 31 -14 13 -19 13 -44 0
-16 -9 -45 -27 -64 -42 l-35 -26 -8 32 c-5 17 -4 36 1 42 6 7 15 39 22 72 7
33 23 94 36 135 12 41 30 111 40 155 9 44 22 94 29 110 11 27 34 135 71 334 7
40 18 78 23 85 8 10 16 52 38 199 4 27 2 37 -8 37 -8 0 3 12 24 27 38 27 50
66 23 76 -11 5 -13 13 -6 39 5 18 16 78 24 133 8 55 22 145 30 200 9 55 16
122 16 148 0 26 7 64 15 84 8 19 15 59 15 87 l0 51 68 35 c49 25 67 40 67 55
0 26 -34 31 -74 11 -45 -24 -54 -21 -45 17 8 38 12 109 18 359 5 168 13 228
33 228 14 0 89 -24 98 -32 15 -13 198 -9 273 7 113 23 191 53 413 159 53 25
101 46 107 46 7 0 12 5 12 10 0 6 5 10 10 10 13 0 113 78 158 122 42 42 92
113 92 131 0 7 11 19 24 26 28 16 76 7 127 -22 42 -24 72 -18 67 15 -4 28 -96
78 -144 78 l-32 0 29 31 c16 17 32 43 35 58 3 14 15 43 26 65 19 36 20 39 4
48 -15 8 -9 15 36 43 108 68 149 176 118 310 -5 22 -6 42 -3 45 3 3 28 -20 57
-51 28 -30 85 -84 126 -119 41 -35 77 -66 80 -69 16 -19 93 -51 109 -46 26 8
41 48 41 109 0 83 -26 155 -74 203 -41 41 -42 42 -19 48 13 3 28 3 33 0 6 -4
10 -2 10 2 0 5 17 17 38 28 49 26 57 34 72 77 12 31 11 40 -3 61 -39 60 -249
101 -359 70 -41 -11 -10 22 124 132 79 64 143 120 143 123 1 7 35 63 45 72 9
9 14 34 14 83 1 43 -3 52 -33 79 -31 28 -38 30 -87 25 -29 -3 -80 -19 -114
-34 -33 -16 -62 -28 -64 -25 -3 2 -1 15 5 29 13 36 11 63 -6 70 -26 9 -106
-27 -152 -70 -41 -38 -103 -146 -103 -181 0 -9 -5 -16 -11 -16 -5 0 -8 -4 -5
-9 8 -12 -34 -191 -45 -191 -11 0 -17 38 -29 180 -28 318 -90 421 -196 328
-53 -47 -74 -98 -74 -188 l0 -74 -37 36 c-41 39 -114 77 -150 78 -54 0 -81
-98 -48 -177 19 -45 19 -59 0 -43 -15 12 -75 10 -107 -4 -15 -7 -17 0 -20 55
-3 69 -22 94 -52 70 -12 -10 -16 -32 -16 -86 0 -68 -1 -73 -20 -68 -22 6 -147
-54 -192 -92 -16 -14 -35 -25 -43 -25 -7 0 -19 -10 -27 -22 -17 -26 -33 -18
-42 19 -23 92 -27 103 -45 103 -23 0 -43 -23 -36 -41 3 -8 13 -53 24 -101 l19
-87 -33 -15 c-19 -10 -35 -26 -39 -41 -3 -13 -17 -36 -31 -51 -14 -15 -25 -32
-25 -39 0 -7 -12 -30 -27 -51 -15 -21 -46 -75 -68 -119 -23 -44 -48 -80 -56
-80 -15 0 -37 63 -38 111 -1 16 -5 34 -10 40 -4 5 -16 52 -26 104 -10 52 -24
110 -31 129 -8 18 -14 42 -14 52 0 20 -45 163 -60 191 -7 13 0 29 29 65 55 70
65 91 50 109 -19 23 -33 17 -69 -27 l-32 -41 -18 27 c-10 15 -24 48 -31 74 -6
25 -16 50 -20 55 -5 6 -9 18 -9 27 0 9 -7 22 -15 29 -8 7 -15 21 -15 31 0 11
-9 26 -19 35 -18 16 -17 19 35 93 30 42 54 81 54 88 0 6 -10 15 -22 19 -21 6
-30 -1 -90 -75 -10 -12 -15 -9 -35 13 -13 15 -23 34 -23 42 0 14 -40 86 -107
193 -16 25 -36 61 -47 80 -10 20 -33 54 -50 76 -18 22 -42 56 -53 75 -12 19
-36 49 -53 65 -18 17 -36 40 -41 53 -5 12 -15 22 -23 22 -8 0 -18 9 -21 20 -4
11 -20 27 -37 36 -17 9 -45 30 -63 47 -36 36 -55 48 -176 111 -47 24 -103 48
-125 52 -21 3 -45 11 -51 16 -7 6 -21 8 -31 6 -10 -3 -23 1 -30 9 -15 15 -31
16 -180 15 -93 -1 -110 -4 -168 -31 -46 -21 -66 -27 -69 -18 -3 7 -11 30 -18
52 -11 32 -19 40 -38 40 -27 0 -29 -20 -14 -102 7 -38 5 -43 -11 -43 -46 0
-282 -199 -314 -264 -8 -17 -25 -35 -38 -41 -12 -5 -24 -17 -27 -26 -3 -8 -15
-26 -27 -39 -39 -42 -248 -359 -248 -376 0 -6 -7 -17 -15 -24 -9 -7 -28 -38
-42 -69 -14 -31 -34 -68 -45 -83 -10 -14 -18 -33 -18 -42 0 -28 -16 -17 -60
38 -52 68 -63 78 -84 70 -24 -9 -19 -45 12 -81 102 -119 105 -128 72 -158 -11
-10 -20 -28 -20 -39 0 -12 -6 -30 -13 -41 -8 -11 -24 -49 -36 -85 -13 -36 -27
-74 -31 -85 -39 -96 -111 -317 -121 -370 -4 -22 -14 -65 -23 -95 -9 -30 -19
-71 -22 -90 -12 -79 -13 -80 -44 -80 -37 0 -128 79 -233 202 -37 43 -118 214
-132 278 -4 19 -13 46 -20 60 -7 14 -23 81 -34 150 -12 69 -23 135 -26 146 -4
17 14 42 76 109 80 86 93 116 55 123 -12 3 -39 -16 -76 -53 l-58 -57 -6 48
c-3 27 -11 99 -16 159 -6 61 -13 117 -15 125 -2 8 -7 42 -11 75 -3 33 -8 63
-10 66 -1 3 7 16 19 30 94 103 127 147 121 163 -12 31 -46 17 -99 -41 l-53
-58 -10 39 c-6 21 -21 49 -33 62 -27 29 -24 30 23 5 38 -19 83 -18 87 2 23
123 2 225 -60 292 l-40 43 50 17 c33 11 63 31 90 60 44 48 49 69 26 102 -33
47 -234 93 -327 75 -27 -5 -48 -6 -48 -3 0 4 14 20 30 36 17 16 30 25 30 21 0
-5 8 1 18 12 9 11 46 43 82 71 85 67 105 87 141 141 61 91 62 151 4 206 -33
31 -35 31 -87 22 -29 -5 -77 -20 -107 -34 -29 -13 -57 -24 -62 -24 -4 0 -3 15
2 32 18 65 7 76 -61 58 -47 -13 -118 -73 -152 -129 -12 -20 -24 -38 -27 -41
-4 -3 -8 -12 -9 -20 -20 -87 -71 -282 -75 -286 -7 -7 -15 49 -27 196 -27 310
-78 402 -190 339z"/>
</g>
</svg>
