<?xml version="1.0" standalone="no"?>
<!DOCTYPE svg PUBLIC "-//W3C//DTD SVG 20010904//EN"
 "http://www.w3.org/TR/2001/REC-SVG-20010904/DTD/svg10.dtd">
<svg version="1.0" xmlns="http://www.w3.org/2000/svg"
 width="1280.000000pt" height="1280.000000pt" viewBox="0 0 1280.000000 1280.000000"
 preserveAspectRatio="xMidYMid meet">

<g transform="translate(0.000000,1280.000000) scale(0.100000,-0.100000)"
fill="#000000" stroke="none">
<path d="M3517 10679 c7 -7 15 -10 18 -7 3 3 -2 9 -12 12 -14 6 -15 5 -6 -5z"/>
<path d="M5984 10595 c-6 -15 15 -115 36 -170 7 -19 16 -26 33 -23 31 4 32 37
4 128 -19 61 -27 76 -45 78 -13 2 -25 -3 -28 -13z"/>
<path d="M6504 10532 c-14 -9 -54 -99 -54 -122 0 -17 19 -30 41 -30 6 0 23 28
39 63 20 45 25 67 19 80 -10 18 -27 22 -45 9z"/>
<path d="M3980 10380 c0 -5 5 -10 11 -10 5 0 7 5 4 10 -3 6 -8 10 -11 10 -2 0
-4 -4 -4 -10z"/>
<path d="M6661 10286 c-10 -11 1 -37 52 -128 358 -630 582 -1380 666 -2228 49
-496 48 -1075 -5 -1665 -32 -358 -114 -953 -184 -1330 -11 -60 -23 -123 -25
-140 -3 -16 -16 -86 -30 -155 -13 -69 -27 -141 -30 -160 -3 -19 -8 -43 -11
-52 -4 -14 1 -18 25 -18 16 0 33 5 36 11 22 35 165 850 220 1254 81 602 110
1042 102 1590 -6 392 -18 583 -57 885 -102 783 -339 1513 -686 2108 -26 44
-52 54 -73 28z"/>
<path d="M3421 10213 c-6 -21 -15 -83 -22 -138 -33 -297 65 -686 295 -1170
114 -239 161 -290 591 -641 292 -238 298 -242 323 -233 12 5 22 15 22 23 0 8
-82 81 -182 162 -410 331 -532 441 -596 535 -79 118 -220 436 -298 677 -64
197 -88 337 -89 512 0 146 7 228 21 251 3 6 3 21 0 35 -5 17 -13 24 -31 24
-20 0 -26 -7 -34 -37z"/>
<path d="M6311 10241 c-17 -11 -15 -28 38 -366 133 -851 215 -1692 273 -2805
20 -382 17 -1825 -5 -2250 -9 -184 -20 -354 -23 -378 l-5 -42 35 0 c28 0 36 4
36 18 0 9 4 87 10 172 54 902 53 1915 -5 2910 -49 828 -123 1534 -249 2380
-56 374 -60 389 -105 361z"/>
<path d="M5797 10128 c-472 -531 -728 -1302 -792 -2392 -60 -1023 61 -2042
360 -3029 101 -334 95 -321 138 -325 l35 -3 -48 148 c-218 664 -350 1324 -412
2063 -20 244 -17 1104 5 1340 37 381 75 626 141 887 134 535 330 935 620 1263
67 76 79 103 50 114 -27 10 -31 8 -97 -66z"/>
<path d="M6040 10148 c-20 -48 -116 -485 -155 -706 -56 -322 -120 -789 -144
-1047 -43 -465 -51 -606 -58 -1080 -10 -723 26 -1311 128 -2035 30 -212 117
-711 148 -842 5 -20 6 -39 3 -42 -3 -4 14 -6 37 -6 36 0 41 3 37 18 -25 78
-129 651 -161 882 -78 569 -109 944 -125 1518 -19 693 22 1423 121 2117 48
344 133 802 199 1079 17 71 28 137 25 147 -9 26 -43 24 -55 -3z"/>
<path d="M4335 10018 c-144 -162 -147 -166 -140 -188 11 -36 41 -21 106 53 35
39 66 74 69 77 3 3 29 32 58 66 55 64 61 94 18 94 -14 0 -50 -33 -111 -102z"/>
<path d="M3805 9993 l-31 -15 12 -121 c35 -362 137 -637 371 -997 112 -173
424 -560 451 -560 13 0 32 23 32 38 0 7 -38 57 -83 110 -470 546 -684 983
-704 1440 -3 67 -9 121 -12 121 -3 -1 -20 -8 -36 -16z"/>
<path d="M3737 9979 c7 -7 15 -10 18 -7 3 3 -2 9 -12 12 -14 6 -15 5 -6 -5z"/>
<path d="M7486 9678 c-108 -135 -125 -178 -71 -178 16 0 37 21 79 82 68 96 73
107 55 119 -24 15 -36 10 -63 -23z"/>
<path d="M5063 9603 c-21 -8 -14 -46 15 -80 15 -18 42 -50 60 -73 28 -34 36
-38 53 -30 10 6 19 18 19 26 0 16 -116 165 -128 163 -4 0 -13 -3 -19 -6z"/>
<path d="M4386 9428 c-115 -122 -136 -158 -100 -172 9 -3 17 -6 19 -6 2 0 58
59 125 130 121 131 139 162 94 168 -16 2 -50 -28 -138 -120z"/>
<path d="M3014 9525 c-12 -30 6 -43 126 -90 113 -44 123 -46 138 -31 28 28 2
48 -119 93 -127 48 -137 50 -145 28z"/>
<path d="M3777 9309 c-44 -26 -64 -122 -27 -134 28 -9 38 0 46 40 3 19 10 35
15 35 17 0 31 41 18 56 -13 16 -27 17 -52 3z"/>
<path d="M7613 9247 c-67 -84 -78 -104 -62 -123 20 -24 36 -16 87 49 67 85 76
105 61 123 -20 24 -34 16 -86 -49z"/>
<path d="M8451 9286 c-19 -23 -10 -176 11 -189 12 -8 21 -7 32 2 20 17 23 170
4 189 -16 16 -33 15 -47 -2z"/>
<path d="M5437 9144 c-15 -16 -5 -42 41 -109 36 -52 54 -69 68 -67 17 4 33 19
34 32 0 3 -22 37 -49 75 -44 64 -75 87 -94 69z"/>
<path d="M6102 9036 c-40 -53 -72 -102 -72 -110 0 -9 9 -20 20 -26 23 -13 38
2 116 113 57 81 64 110 28 115 -16 2 -37 -19 -92 -92z"/>
<path d="M8042 9108 c-9 -12 22 -178 43 -230 9 -21 51 -24 58 -4 5 12 -10 83
-44 209 -10 38 -36 50 -57 25z"/>
<path d="M8670 9030 c-32 -10 -49 -20 -40 -23 29 -10 141 -35 136 -30 -3 3 -1
14 5 25 7 14 7 23 -2 34 -14 17 -30 17 -99 -6z"/>
<path d="M8830 8966 c14 -15 39 -34 55 -42 l30 -15 -25 20 c-14 11 -38 30 -55
43 l-30 22 25 -28z"/>
<path d="M8370 8862 c-143 -116 -207 -204 -325 -447 -110 -226 -130 -312 -73
-303 18 2 28 20 53 93 65 184 211 444 294 525 41 39 104 94 129 111 19 14 21
21 15 53 l-8 36 -85 -68z"/>
<path d="M8999 8693 c-13 -16 -12 -17 4 -4 9 7 17 15 17 17 0 8 -8 3 -21 -13z"/>
<path d="M8966 8663 c-6 -14 -5 -15 5 -6 7 7 10 15 7 18 -3 3 -9 -2 -12 -12z"/>
<path d="M9336 8647 c3 -10 9 -15 12 -12 3 3 0 11 -7 18 -10 9 -11 8 -5 -6z"/>
<path d="M8790 8600 c-75 -23 -205 -123 -355 -274 -129 -130 -187 -215 -165
-241 21 -25 47 -17 61 17 33 79 274 311 436 421 39 25 76 53 83 62 22 27 -2
33 -60 15z"/>
<path d="M8899 8583 c-13 -16 -12 -17 4 -4 9 7 17 15 17 17 0 8 -8 3 -21 -13z"/>
<path d="M7021 8451 c-61 -67 -82 -96 -79 -113 7 -49 40 -33 123 62 83 94 99
132 59 138 -15 2 -42 -21 -103 -87z"/>
<path d="M6242 8462 c-63 -58 -79 -93 -46 -106 19 -7 28 -1 102 69 36 33 52
56 50 70 -6 38 -40 27 -106 -33z"/>
<path d="M9036 8351 c-11 -11 -25 -21 -32 -21 -7 0 -32 -28 -55 -62 -55 -82
-194 -222 -210 -212 -8 4 -9 3 -5 -4 19 -31 -284 -204 -439 -251 -38 -12 -119
-29 -180 -39 -105 -17 -110 -19 -110 -42 0 -23 4 -25 49 -28 58 -4 221 29 320
65 191 69 333 160 482 308 127 127 207 238 202 280 l-3 27 -19 -21z"/>
<path d="M8707 8282 c-75 -49 -87 -61 -85 -82 5 -41 32 -35 123 27 62 42 85
64 85 79 0 17 -17 35 -33 34 -1 0 -41 -26 -90 -58z"/>
<path d="M9033 8015 c-34 -14 -40 -29 -23 -55 7 -12 16 -12 58 -2 54 14 89 9
143 -21 42 -24 72 -18 67 15 -2 16 -19 31 -57 51 -62 31 -135 36 -188 12z"/>
<path d="M5433 7944 c-3 -10 7 -43 25 -80 27 -53 36 -64 57 -64 21 0 25 5 25
28 -1 42 -51 126 -78 130 -14 2 -25 -3 -29 -14z"/>
<path d="M7005 7834 c-80 -70 -96 -87 -93 -102 2 -10 14 -18 28 -20 19 -2 42
12 90 56 57 52 63 61 51 76 -19 23 -41 20 -76 -10z"/>
<path d="M6226 7659 c-30 -36 -39 -63 -34 -110 2 -29 7 -34 28 -34 21 0 25 6
32 43 4 23 16 54 28 69 19 24 19 27 4 45 -23 24 -28 23 -58 -13z"/>
<path d="M5135 7266 c-23 -17 -19 -26 53 -138 42 -67 61 -88 78 -88 43 0 36
30 -32 136 -37 57 -70 104 -74 104 -3 0 -15 -6 -25 -14z"/>
<path d="M7105 7129 c-37 -30 -50 -48 -50 -68 0 -41 26 -36 89 15 41 34 56 53
54 68 -5 35 -39 30 -93 -15z"/>
<path d="M5923 7073 c-24 -9 -12 -48 40 -133 53 -87 78 -106 96 -72 8 15 -1
38 -46 115 -53 93 -62 102 -90 90z"/>
<path d="M4536 6944 c-3 -9 -4 -20 -1 -25 3 -4 69 -58 146 -119 119 -93 144
-108 160 -100 41 23 33 32 -164 184 -98 76 -130 90 -141 60z"/>
<path d="M7833 6850 c-71 -33 -83 -42 -83 -63 0 -42 27 -39 123 11 70 35 92
52 92 67 0 33 -42 28 -132 -15z"/>
<path d="M7074 6428 c-67 -64 -80 -84 -63 -104 20 -24 37 -16 104 52 68 67 79
96 38 102 -16 2 -39 -12 -79 -50z"/>
<path d="M6087 6253 c-13 -13 -7 -37 19 -75 27 -38 51 -47 71 -27 14 14 8 34
-24 77 -22 30 -51 41 -66 25z"/>
<path d="M5411 6227 c-17 -17 -14 -28 24 -85 37 -54 62 -65 85 -37 10 13 8 22
-14 53 -54 76 -74 90 -95 69z"/>
<path d="M7679 6012 c-123 -74 -179 -118 -179 -138 0 -23 24 -38 43 -27 7 3
56 35 110 71 74 50 97 70 97 88 0 33 -22 35 -71 6z"/>
<path d="M4397 5934 c-9 -9 -9 -140 -1 -172 5 -18 13 -22 33 -20 23 3 26 8 29
49 2 25 -1 68 -5 95 -7 38 -13 50 -29 52 -11 2 -23 0 -27 -4z"/>
<path d="M4664 5806 c-5 -14 10 -141 22 -178 7 -22 50 -24 58 -2 3 8 -1 54 -9
101 -8 47 -15 87 -15 89 0 12 -52 2 -56 -10z"/>
<path d="M4319 5654 c-22 -26 0 -44 91 -73 159 -52 303 -136 422 -248 71 -67
77 -70 96 -51 24 24 11 47 -65 114 -132 115 -264 191 -422 244 -103 35 -104
35 -122 14z"/>
<path d="M6204 5443 c-22 -46 -30 -138 -15 -176 8 -21 17 -28 34 -25 20 3 22
8 23 73 0 47 6 81 18 103 13 26 15 37 5 48 -20 25 -46 16 -65 -23z"/>
<path d="M4174 5455 c-15 -37 111 -202 220 -289 112 -89 278 -157 421 -172 51
-5 64 -3 84 13 42 34 23 49 -71 55 -212 14 -441 151 -558 336 -34 54 -51 72
-68 72 -12 0 -25 -7 -28 -15z"/>
<path d="M4504 5435 c-6 -15 51 -148 71 -165 17 -14 45 -1 45 21 0 10 -14 50
-31 89 -27 58 -36 70 -56 70 -13 0 -26 -7 -29 -15z"/>
<path d="M6824 5267 c-56 -71 -67 -127 -24 -127 24 0 93 101 88 128 -5 27 -43
26 -64 -1z"/>
<path d="M4080 5263 c-38 -7 -51 -22 -39 -44 8 -16 21 -19 82 -18 40 1 83 4
97 8 28 8 39 39 18 52 -13 9 -113 10 -158 2z"/>
<path d="M5447 5179 c-29 -17 -19 -44 33 -93 53 -49 60 -52 78 -34 19 19 14
35 -21 70 -64 63 -71 67 -90 57z"/>
<path d="M7468 4747 c-94 -64 -111 -88 -77 -110 12 -8 37 4 108 52 51 34 95
69 98 77 5 15 -13 44 -28 44 -4 0 -50 -28 -101 -63z"/>
<path d="M6998 4770 c-49 -30 -69 -56 -61 -77 14 -39 147 37 141 80 -4 32 -27
31 -80 -3z"/>
<path d="M6362 4451 c-23 -27 -42 -52 -42 -55 0 -3 17 -6 39 -6 32 0 43 6 65
34 14 19 26 37 26 40 0 8 -31 36 -39 36 -4 0 -27 -22 -49 -49z"/>
<path d="M5667 4449 c-23 -13 -22 -46 3 -59 11 -6 44 -10 72 -8 l52 3 -44 30
c-25 17 -49 33 -55 37 -6 3 -18 2 -28 -3z"/>
<path d="M5153 4433 c-16 -6 -17 -35 -1 -51 7 -7 40 -12 83 -12 l70 1 -65 34
c-69 36 -69 36 -87 28z"/>
</g>
</svg>
